<svg id="Capa_1" data-name="Capa 1" xmlns="http://www.w3.org/2000/svg" viewBox="0 0 512 512"><defs><style>.cls-1{fill:#7b087e;}</style></defs><title>512</title><path class="cls-1" d="M70.54,80.17C69,38.45,32.5,17.86,2.68,21c-1.56.17-1,6.33-1,6.33S0,251.28,0,256.06C0,350.63,89.56,424.27,188.49,396.8c52-14.45,91.85-57.36,101.78-110.44A161.9,161.9,0,0,0,291.71,235a76.44,76.44,0,1,1,7.82,58.82c-.91,3.55-2.07,7.79-3.29,11.82-2.71,8.94-9.49,20.87-16.54,35.24s-28.57,35-36,39.84c-10.84,7-21.68,13-21.68,13v97.59s28.46,0,43.91-14.91c14.29-13.79,23-24.13,25.48-37.14,2.1-11.24,0-57.68,0-57.68l-.17-.12a145.92,145.92,0,0,0,80,20.1c70.29-2.7,134.7-64.24,140.32-134.36,8.07-100.84-86-182.41-189.84-152.29a142.09,142.09,0,0,0-100,109.89,162,162,0,0,0-1.44,51.37,76.44,76.44,0,1,1-7.82-58.82c.91-3.55,2.07-7.79,3.29-11.81,2.71-8.95,9.49-20.88,16.54-35.24,3.08-6.27,8.91-13.74,15.13-20.56L220.64,129.6l.17.13a145.83,145.83,0,0,0-74.26-20.22c-37.9,0-81.61,25.25-76,21"/></svg>